<?xml version="1.0" encoding="UTF-8"?> <svg xmlns="http://www.w3.org/2000/svg" width="181" height="64" viewBox="0 0 181 64" fill="none"><g clip-path="url(#clip0_31_2)"><path d="M52.6465 21.7842C49.6235 25.5293 48.4807 29.6318 50.2476 34.3353C49.8907 33.9527 49.5182 33.5855 49.1808 33.1875C47.8858 31.655 47.1408 29.883 46.9614 27.9003C46.7644 25.736 47.6635 23.9852 49.2101 22.5282C51.4529 20.4141 54.0527 18.8605 56.9411 17.7725C57.0074 17.7474 57.0737 17.7223 57.1381 17.6952C57.1595 17.6855 57.1751 17.6701 57.1829 17.6121C56.7577 17.73 56.3287 17.8305 55.9113 17.9657C54.1365 18.5397 52.4008 19.1986 50.8152 20.1977C49.0189 21.3301 47.5387 22.7504 46.6162 24.6848C45.6449 26.7196 45.5591 28.7989 46.2632 30.9246C46.3061 31.0541 46.347 31.1855 46.3256 31.3613C46.0486 31.1236 45.7697 30.8879 45.4928 30.6502C43.6731 29.0868 42.423 27.1892 41.9608 24.8143C41.5668 22.7852 41.914 20.8412 42.5985 18.93C42.9944 17.8227 43.4859 16.7676 44.2465 15.8517C45.5571 14.2709 47.211 13.3569 49.3212 13.3125C48.0145 13.9985 46.858 14.8777 45.8146 15.9077C44.7614 16.9493 44.0359 18.188 43.5425 19.5812C44.6522 17.902 46.1305 16.642 47.9229 15.7415C45.3231 18.3986 43.8857 23.477 44.5059 26.7022C44.5683 26.31 44.6151 26.0201 44.662 25.7302C45.1846 22.5514 46.5674 19.7668 48.5899 17.2662C49.7191 15.8729 50.9634 14.6053 52.4456 13.5791C53.6977 12.7115 55.1 12.1704 56.5452 11.724C56.707 11.6738 56.8709 11.6216 57.0113 11.494C56.3209 11.6757 55.6305 11.8554 54.9401 12.0371C54.9303 12.0255 54.9206 12.0158 54.9108 12.0042C55.1078 11.8844 55.3009 11.7569 55.5017 11.6448C56.8202 10.9047 58.2536 10.5993 59.7495 10.6322C60.7598 10.6534 61.7798 10.7269 62.7744 10.8911C63.7496 11.0535 64.7013 11.3607 65.4542 11.552C64.2567 10.9182 62.8778 10.1201 61.3078 9.77419C60.5511 9.608 59.771 9.55969 59.0084 9.41089C58.6729 9.34519 58.3355 9.20799 58.043 9.02827C57.0093 8.39637 55.9152 8.02148 54.6885 8.15288C54.3647 8.18767 54.0312 8.25724 53.7309 8.37898C52.6894 8.80025 52.3891 9.76066 53.0034 10.696C53.177 10.9626 53.4149 11.1868 53.5983 11.4825C53.4968 11.4438 53.3837 11.4225 53.2921 11.3665C52.5197 10.8795 52.0653 10.1974 52.1199 9.26983C52.1726 8.4041 52.7382 7.87075 53.4734 7.52485C54.4778 7.05333 55.5018 7.21759 56.5062 7.5577C56.8845 7.68524 57.2726 7.81085 57.6178 8.00602C58.6593 8.59541 59.7866 8.85629 60.9587 9.06112C63.7106 9.5423 66.049 10.8448 68.0539 12.754C68.366 13.0516 68.6332 13.3975 68.9511 13.7569C69.4191 13.2661 69.6337 12.6883 69.7448 12.0622C70.0647 10.2534 69.3606 8.74034 68.3211 7.33547C68.0227 6.93159 67.6853 6.5567 67.3518 6.15089C67.4064 6.14703 67.4474 6.13157 67.4688 6.14509C68.7326 6.94512 69.8228 7.9094 70.4099 9.32007C70.8097 10.2786 70.8253 11.2564 70.4469 12.2264C70.3104 12.5743 70.3241 12.8371 70.5913 13.1405C71.0632 13.6758 71.506 14.242 71.9058 14.8313C72.3329 15.4613 72.3056 15.4787 71.8258 16.0449C71.818 16.0546 71.8102 16.0623 71.8024 16.072C71.3616 16.5937 71.3499 17.1335 71.7673 17.6913C72.4928 18.6575 73.2222 19.618 73.9399 20.588C74.1252 20.8393 74.2695 21.1214 74.4802 21.4654C73.9068 21.6973 73.388 21.9427 72.8458 22.1069C72.6371 22.1707 72.3407 22.1069 72.1398 22.0006C71.7166 21.7765 71.3265 21.4886 70.9287 21.218C70.6595 21.0344 70.404 20.8566 70.053 21.0267C70.0003 21.0518 69.8638 20.9765 69.8072 20.9146C69.6044 20.6905 69.4191 20.4528 69.2065 20.1958C69.0154 20.5165 69.0544 20.8277 69.2202 21.075C69.4796 21.4596 69.7975 21.8055 70.1037 22.1572C70.3416 22.4296 70.6342 22.6596 70.8409 22.9514C71.0808 23.2915 70.7161 24.0761 70.3143 24.2055C69.5342 24.4606 68.7443 24.6094 67.9174 24.565C67.2465 24.5283 66.6867 24.2886 66.2362 23.7881C65.9222 23.4403 65.6024 23.0944 65.2591 22.7736C64.6331 22.19 63.3868 22.2113 62.7627 22.8026C62.4565 23.0944 62.4117 23.4732 62.6106 23.8017C63.1333 24.6577 63.6677 25.5157 64.284 26.3061C64.4907 26.5728 64.9432 26.6829 65.3059 26.7911C65.5673 26.8684 65.8676 26.8394 66.1504 26.8317C66.8798 26.8143 67.5507 26.9921 68.1631 27.3844C68.2996 27.4713 68.4284 27.5738 68.5532 27.6627C68.0208 29.2067 67.2913 29.7999 65.854 29.7806C66.1153 29.6183 66.3006 29.5023 66.4839 29.3883C66.4781 29.3709 66.4722 29.3535 66.4664 29.3342C66.1329 29.396 65.7994 29.4579 65.4639 29.5178C65.4464 29.4927 65.4288 29.4675 65.4113 29.4424C65.5361 29.3613 65.6589 29.282 65.7838 29.2009C65.7662 29.1719 65.7467 29.1429 65.7291 29.1158C65.5497 29.1641 65.3722 29.2376 65.1889 29.2588C64.52 29.34 63.892 29.1545 63.3264 28.8356C63.1411 28.7313 63.0046 28.4376 62.9597 28.2095C62.8876 27.8346 62.8895 27.4424 62.8954 27.0578C62.9012 26.6559 62.7413 26.3351 62.4916 26.0394C62.2791 25.7882 62.0743 25.5331 61.8539 25.2877C60.867 24.1901 60.7637 22.9282 61.1401 21.5755C61.1869 21.4113 61.2473 21.2489 61.302 21.0866C61.2708 21.0615 61.2395 21.0383 61.2083 21.0132C60.7754 21.4847 60.3405 21.9562 59.9055 22.4296C60.0908 21.0576 60.6779 19.8093 61.2786 18.5629C60.5121 19.2257 59.9523 20.0373 59.4882 20.9204C58.2185 23.3437 58.4097 25.7669 59.5233 28.1747C59.8412 28.8646 60.202 29.5352 60.5706 30.2019C61.5496 31.9681 61.8968 33.8329 61.4989 35.8214C61.458 36.0281 61.4307 36.2368 61.3917 36.4436C61.3858 36.4726 61.3605 36.4996 61.2864 36.6272C61.2142 35.2861 60.8982 34.1015 60.319 33C59.7437 31.9043 59.1254 30.8318 58.5091 29.7535C58.9304 31.7014 59.7632 33.6049 59.1917 35.661C59.2951 34.0976 58.4994 32.8087 57.9065 31.456C57.4716 30.4608 56.9957 29.4753 56.6505 28.4491C55.7241 25.6916 56.2858 23.1524 57.9435 20.8103C58.0313 20.6866 58.123 20.5668 58.2283 20.4257C56.8455 20.903 54.9771 23.3901 54.5012 25.3978C53.9942 27.5332 54.3764 29.5854 55.1292 31.599C54.5637 28.9806 54.7119 26.4356 55.9367 23.9949C55.9152 24.2287 55.8918 24.4626 55.8704 24.6964C55.6773 26.8163 55.9932 28.8936 56.395 30.9632C56.5842 31.9372 56.8143 32.9053 56.9625 33.887C57.2161 35.5721 56.5725 36.9943 55.5154 38.2794C55.5856 38.0649 55.6675 37.8543 55.7241 37.6378C56.04 36.4436 55.9094 35.3711 54.9849 34.4319C52.9664 32.3797 51.8254 29.9159 51.646 27.0462C51.5446 25.4462 51.8469 23.906 52.4963 22.4354C52.5763 22.2538 52.6523 22.0702 52.7284 21.8866C52.7362 21.8673 52.7284 21.8422 52.7284 21.819C52.7011 21.8074 52.6719 21.7939 52.6445 21.7823L52.6465 21.7842ZM49.2471 17.5348C49.3661 17.5348 49.4226 17.5425 49.4773 17.5348C52.9781 17.0208 56.3618 16.0758 59.6305 14.7405C60.4731 14.3966 61.3195 14.1724 62.2303 14.1685C62.5697 14.1685 62.911 14.1318 63.2503 14.1125C63.2503 14.0661 63.2523 14.0217 63.2542 13.9753C61.3819 13.8226 59.5116 13.668 57.6393 13.5154C57.6334 13.5598 57.6256 13.6023 57.6198 13.6468C58.4916 13.8265 59.3614 14.0062 60.2332 14.1859C56.4437 14.8719 52.7128 15.6623 49.2471 17.5367V17.5348ZM67.7263 18.0894C67.7594 17.6991 67.8023 17.2701 67.8296 16.8391C67.8355 16.7425 67.814 16.6227 67.7575 16.5493C67.2601 15.9077 66.6555 15.4304 65.7994 15.3666C65.1187 15.3164 64.44 15.2642 63.851 15.2217C64.3269 15.5734 64.8788 15.9676 65.4093 16.3869C65.616 16.5493 65.7994 16.6324 66.047 16.5087C66.2596 16.4024 66.4215 16.4894 66.5073 16.6845C66.5951 16.8836 66.6497 17.0981 66.718 17.3068C66.7414 17.3783 66.7453 17.4846 66.796 17.5174C67.1236 17.7319 67.463 17.931 67.7224 18.0894H67.7263ZM63.773 14.2149C64.9061 14.4507 66.0412 14.6961 67.032 15.3628C66.1192 14.497 64.9802 14.2671 63.773 14.2149ZM69.7799 16.184C69.7078 15.7222 69.6454 15.3299 69.5849 14.9376L69.5186 14.9531C69.4328 15.2816 69.345 15.612 69.2533 15.9618C69.4094 16.0275 69.5556 16.0874 69.7819 16.1821L69.7799 16.184ZM68.6058 20.2634C68.3465 20.704 68.522 21.3958 68.9667 21.5948C68.8457 21.1504 68.7248 20.7001 68.6058 20.2634Z" fill="#007FFF"></path><path d="M40.3245 25.2182C39.7569 21.7301 40.1119 18.2981 42.2065 15.1637C42.1773 15.1483 42.148 15.1328 42.1188 15.1174C41.715 15.6372 41.2879 16.1396 40.9135 16.6768C40.2796 17.5909 39.716 18.5552 39.0548 19.4479C37.7169 21.2509 36.065 22.6809 33.9002 23.4558C33.4126 23.6297 32.9289 23.8171 32.4511 24.0162C31.9947 24.2075 31.5306 24.3891 31.1073 24.6346C30.6822 24.88 30.3038 25.2008 29.8669 25.4655C30.1049 25.2143 30.3292 24.9457 30.5847 24.7138C31.3862 23.9833 32.2522 23.3398 33.2254 22.8451C35.0255 21.9292 36.3654 20.5146 37.5297 18.9184C37.9139 18.3909 38.2669 17.844 38.5926 17.2662C36.8939 19.2044 34.9143 20.8064 32.7748 22.2248C32.7436 22.2055 32.7144 22.1862 32.6832 22.1688C33.3229 21.0654 33.9626 19.96 34.5906 18.8779C33.6096 19.216 32.5954 19.5639 31.5832 19.9117L31.5618 19.8499C32.6286 19.2875 33.7266 18.7774 34.7505 18.1455C35.7998 17.4981 36.7866 16.7503 37.7774 16.014C38.7525 15.2874 39.6965 14.5183 40.6151 13.7028C37.6974 15.1058 34.6549 15.8749 31.4155 15.815C33.7207 15.7821 35.7764 14.9821 37.7793 13.7879C36.4531 14.1125 35.2244 14.126 34.0503 13.4574C36.5955 13.5985 38.8657 12.7347 41.0753 11.61C37.8924 12.526 34.8929 12.3366 32.18 10.2051C32.6383 10.3462 33.0674 10.5027 33.5101 10.6071C35.3688 11.0496 37.1923 10.7597 38.9963 10.2824C39.7881 10.0737 40.5624 9.7974 41.3445 9.5172C39.8993 9.3626 38.5517 8.96839 37.3756 8.0988C37.5687 8.18769 37.7618 8.27658 37.9549 8.36547C39.0451 8.86983 40.1646 8.951 41.3367 8.67273C42.9067 8.29977 44.4767 7.92681 46.0623 7.62922C47.1057 7.43404 48.1764 7.3896 49.2023 7.8012C49.6567 7.98285 49.9941 8.28624 50.1911 8.81766C47.7473 9.49401 45.4031 10.3597 43.1797 11.5327C43.7317 11.3743 44.2816 11.2139 44.8336 11.0554C44.8375 11.0709 44.8414 11.0844 44.8453 11.0999C44.0281 11.6834 43.1583 12.2091 42.4074 12.868C41.6546 13.5308 41.0227 14.3251 40.3381 15.0633L40.4025 15.1367C40.4571 15.098 40.5156 15.0633 40.5644 15.0188C42.1929 13.6004 43.9072 12.3115 45.9511 11.5269C47.3924 10.9723 48.8746 10.982 50.388 11.3491C50.2593 11.4013 50.1306 11.4554 49.9999 11.5037C49.8576 11.5578 49.7132 11.61 49.567 11.6583C47.8624 12.2265 46.2651 12.984 44.9526 14.2323C42.893 16.1918 41.6 18.5919 40.9622 21.3243C40.658 22.6268 40.5273 23.9698 40.3323 25.2124L40.3245 25.2182Z" fill="#007FFF"></path><path d="M50.0447 2.45029C50.386 2.57011 50.7273 2.68605 51.0647 2.80779C52.1939 3.21554 53.3388 3.5827 54.4426 4.04648C55.2189 4.37306 55.9307 4.8523 56.6875 5.23105C57.3135 5.54411 57.961 5.81078 58.6007 6.09678C58.6163 6.06586 58.63 6.03494 58.6456 6.00209C58.08 5.68904 57.5124 5.37985 56.9488 5.06487C55.9541 4.5064 55.1916 3.73922 54.7566 2.67639C54.3822 1.75849 54.5811 0.8773 54.9205 -0.00195312C55.0804 1.14977 55.5972 2.12758 56.4261 2.91021C56.9312 3.38752 57.5202 3.79333 58.1151 4.16049C59.2443 4.8581 60.4262 5.47261 61.5457 6.18374C62.1776 6.58568 62.7295 7.10937 63.2853 7.6234C61.8792 6.65139 60.354 5.93253 58.7392 5.39145C60.6076 6.32288 62.3492 7.41856 63.7554 9.00315C63.4511 8.92199 63.1488 8.83116 62.8426 8.75966C62.0176 8.56835 61.1829 8.40796 60.3638 8.19153C59.49 7.96157 58.6222 7.70456 57.766 7.41856C56.5451 7.01275 55.3203 6.65139 54.0331 6.50259C53.6411 6.45814 53.2569 6.31321 52.8805 6.18567C52.586 6.08519 52.3363 6.11804 52.153 6.36346C51.8565 6.76347 51.5816 7.17894 51.2871 7.60214C50.7507 7.40503 50.1559 7.15382 49.5435 6.96444C48.2914 6.57796 47.0256 6.68617 45.7638 6.92386C44.2699 7.20599 42.7837 7.53064 41.282 7.749C39.792 7.96544 38.4423 7.51132 37.2351 6.62047C37.3404 6.66491 37.4496 6.6997 37.5472 6.75381C38.4111 7.21952 39.3336 7.29295 40.2951 7.1944C41.715 7.04753 43.0587 6.6166 44.4044 6.18374C46.5342 5.49773 48.7185 5.09192 50.9575 4.99143C51.0121 4.9895 51.0686 4.97984 51.1291 4.89868C50.5635 4.83491 49.9979 4.77693 49.4323 4.70544C48.03 4.52572 46.6239 4.37306 45.2333 4.13923C44.5819 4.02909 43.9578 3.75661 43.3454 3.48414C43.8505 3.54212 44.3576 3.66193 44.8608 3.64453C45.7423 3.61361 46.6258 3.54211 47.4976 3.41264C48.9408 3.19814 50.3529 3.28703 51.7122 3.79526C53.0111 4.2803 54.2847 4.83684 55.568 5.36439C55.7064 5.42043 55.841 5.48227 55.9795 5.54024C55.9931 5.51319 56.0068 5.4842 56.0204 5.45715C54.0194 4.47354 52.0184 3.48994 50.0174 2.50634C50.0252 2.48508 50.035 2.46575 50.0428 2.4445L50.0447 2.45029Z" fill="#007FFF"></path><path d="M67.9642 12.3231C67.7067 11.7028 67.422 11.0922 67.2016 10.4603C66.8915 9.57134 66.5346 8.71528 65.9319 7.97516C65.8617 7.89013 65.7837 7.80897 65.6647 7.67756C65.8305 8.18772 65.9963 8.62059 66.1114 9.06698C66.2225 9.50371 66.281 9.95589 66.2927 10.4293C66.164 10.2284 66.0412 10.0255 65.9046 9.83029C64.401 7.6621 62.4799 5.96157 60.1259 4.73641C59.4179 4.36732 58.7334 3.95185 58.0449 3.54797C57.8304 3.42236 57.6334 3.26197 57.4403 3.10351C59.3809 3.98663 61.454 4.60114 63.1489 5.9693C62.0489 4.42143 60.8241 2.9953 59.3009 1.84164L59.3516 1.75854C59.9718 2.07933 60.6057 2.37499 61.2083 2.72476C62.8602 3.68711 64.1786 5.00888 65.3351 6.50651C65.7584 7.05339 66.2245 7.56548 66.6711 8.09304C67.578 9.16553 68.1124 10.3849 68.1299 11.8014C68.1319 11.9618 68.1299 12.1202 68.1299 12.2806C68.0734 12.2961 68.0188 12.3115 67.9622 12.327L67.9642 12.3231Z" fill="#007FFF"></path><path d="M18.1748 19.6277C18.1124 19.7436 18.0617 19.8692 17.9856 19.9775C17.3908 20.8161 16.6243 21.4616 15.694 21.9099C14.2644 22.5998 12.7978 23.2239 11.5028 24.1612C9.28724 25.7651 7.82451 27.8521 7.34279 30.5614C6.80645 33.5759 8.60853 36.4359 11.4989 37.1432C11.8382 37.2263 12.1971 37.2591 12.5482 37.2727C12.8973 37.2862 13.2483 37.2437 13.6013 37.2263C13.3634 37.835 13.1293 38.463 12.8621 39.0776C12.827 39.1587 12.632 39.209 12.5091 39.2109C9.26189 39.2399 6.55876 37.1026 5.8274 33.9721C5.33007 31.8484 5.76694 29.8695 6.71869 27.9661C7.85182 25.7013 9.60319 24.024 11.8382 22.849C13.18 22.1437 14.5745 21.535 15.9241 20.8451C16.5911 20.5031 17.2113 20.0722 17.8549 19.6818C17.9329 19.6354 18.0188 19.6006 18.1007 19.5601C18.126 19.5832 18.1514 19.6045 18.1767 19.6277H18.1748Z" fill="#007FFF"></path><path d="M0.078008 63.0338C-0.136526 61.8531 0.078008 60.8675 0.943943 60.0946C1.68701 59.4298 2.45933 58.796 3.218 58.1486C5.53301 56.1756 6.80851 53.6538 7.23368 50.6837C7.28828 50.303 7.35264 49.9203 7.3897 49.5377C7.41115 49.3194 7.49697 49.215 7.7154 49.157C8.93044 48.8266 9.88609 48.1232 10.6448 47.1241C10.1162 48.7821 9.52333 50.4131 8.60084 51.9281C8.67885 51.8392 8.76077 51.7542 8.83293 51.6615C9.9641 50.2431 10.6857 48.6469 11.0621 46.8729C11.6511 44.1076 12.3337 41.3655 13.3752 38.7219C14.048 37.0175 14.8418 35.3866 15.973 33.9257C17.4611 32.0068 19.3704 30.7874 21.7576 30.2212C24.0141 29.6859 26.2433 29.0328 28.4803 28.4221C28.804 28.3332 29.1161 28.2037 29.5101 28.0646C28.6948 29.226 27.9225 30.3275 27.1482 31.4309C30.4969 28.8395 33.3151 25.6665 36.6735 23.0654C36.2289 24.4375 35.9363 25.8249 35.8837 27.1776C36.4551 25.9216 37.0538 24.5998 37.6526 23.2799C37.6974 23.2954 37.7403 23.3108 37.7852 23.3263C37.1377 25.164 36.5682 27.0153 36.8666 28.998C36.9739 27.8289 37.1553 26.6771 37.6779 25.6085C37.834 25.2897 38.029 24.9901 38.1772 24.7312C38.2572 25.6085 38.2533 26.5264 38.4444 27.4018C38.6628 28.4125 39.0568 29.3845 39.3688 30.3758C39.7121 31.4676 40.0515 32.5594 40.3928 33.6513C40.4064 33.6918 40.4318 33.7305 40.4844 33.8368C40.7906 31.5217 40.071 29.3845 39.8447 27.1873C40.0085 27.6144 40.1685 28.0414 40.3362 28.4666C40.894 29.8792 41.5317 31.2608 41.873 32.7527C42.1656 34.0339 42.2807 35.3093 41.9647 36.6523C42.1831 36.5982 42.3704 36.5538 42.5576 36.5054C44.2427 36.0726 45.7893 36.3335 47.2364 37.3209C47.9794 37.8272 48.7693 38.291 49.5923 38.6485C50.7411 39.1471 51.9971 39.236 53.2336 39.2669C54.628 39.3036 55.806 39.7113 56.8514 40.6679C58.2771 41.9761 59.9816 42.9037 61.6628 43.8564C62.6418 44.411 63.5994 45.0178 64.5044 45.6864C65.4561 46.3898 65.9749 47.3695 65.9632 48.5966C65.5283 47.528 64.7404 46.7937 63.7008 46.1753C64.1338 46.7202 64.5375 47.1744 64.8808 47.6691C65.4444 48.4807 65.6629 49.3638 65.2884 50.3242C65.2377 50.4537 65.1792 50.5793 65.0797 50.7204C65.2845 48.9561 64.5668 47.6768 63.0494 46.8091C64.3074 48.0865 64.8925 49.5474 64.3132 51.3214C64.0597 52.1001 63.3693 52.7513 62.6048 52.9968C62.831 52.7301 63.1158 52.4518 63.3361 52.1291C63.9154 51.275 63.8042 50.4286 63.2328 49.6131C62.7237 48.8846 61.7759 48.0961 60.9139 47.7116C61.0972 47.8797 61.2786 48.0517 61.4678 48.2159C62.047 48.7164 62.4566 49.3368 62.8057 50.0073C63.576 51.4933 62.6984 52.5678 61.5594 53.0296C60.8047 53.3349 60.0616 53.2557 59.2795 52.8538C60.0226 52.589 60.7325 52.3552 61.1908 51.7136C61.1089 51.76 61.027 51.8064 60.8768 51.8934C61.0855 50.732 60.555 49.9493 59.7827 49.3097C59.9485 49.6962 60.1688 50.0904 60.2878 50.5136C60.4692 51.161 60.202 51.7117 59.7378 52.1581C59.6423 52.2509 59.4004 52.2972 59.2776 52.245C58.5247 51.932 57.8226 51.532 57.2278 50.9619C56.7422 50.4981 56.5471 49.9397 56.6154 49.2807C56.6329 49.1068 56.6446 48.9309 56.6466 48.7551C56.6544 47.9512 56.3619 47.5551 55.5856 47.3792C55.336 47.3232 55.1878 47.2207 55.1078 46.985C54.9459 46.5173 54.6261 46.2893 54.1093 46.3531C53.9357 46.3743 53.7562 46.3473 53.5807 46.3299C52.7947 46.2565 52.2506 45.7927 52.0595 45.0332C52.0107 44.8439 51.9776 44.6487 51.9366 44.4516C47.5796 45.0062 43.2441 45.0506 38.9125 44.4361C38.9125 44.3839 38.9125 44.3318 38.9105 44.2796C41.639 44.1733 44.3675 44.069 47.0433 43.9646C46.0935 43.7926 45.0871 43.638 44.0944 43.4255C42.1168 43.0042 40.3225 42.2235 38.9554 40.6814C38.6082 40.2911 38.3235 39.8447 37.9666 39.4331C38.1207 39.8853 38.2299 40.3587 38.4425 40.7819C38.6687 41.2264 38.9593 41.6496 39.2889 42.0264C39.6068 42.3897 40.0066 42.6834 40.4318 43.0641C37.6623 42.382 36.4083 40.4186 35.6847 37.9702C35.6418 37.9818 35.5989 37.9915 35.556 38.0031C35.6516 38.7857 35.6906 39.5799 35.8583 40.3471C36.028 41.1239 36.3264 41.8757 36.5351 42.525C34.7232 40.2408 33.6291 37.1509 34.302 31.4058C33.0538 34.4242 32.9523 37.5548 33.4458 40.7877C30.0854 41.093 26.7855 41.5858 23.5129 42.5694C24.6011 40.3838 25.0595 38.1383 25.0322 35.8987C24.7299 37.0137 24.4783 38.2524 24.059 39.435C22.9063 42.6873 20.8741 45.3444 18.2548 47.5879C16.3572 49.2111 14.1865 50.3629 11.9105 51.3581C10.912 51.7967 9.95045 52.3204 8.97335 52.8055C8.987 52.8364 9.00065 52.8673 9.0143 52.8963C9.70276 52.6373 10.3912 52.3784 11.0777 52.1175C11.0992 52.1523 11.1206 52.1871 11.1401 52.2219C10.8437 53.0296 10.5316 53.8316 10.2566 54.6451C9.38291 57.2249 8.51113 59.8047 7.66859 62.3942C7.51062 62.8792 7.25513 63.2 6.7656 63.3198C6.36579 63.4164 5.96208 63.4918 5.55446 63.5497C5.26582 63.5923 5.06299 63.4396 5.13125 63.1478C5.28142 62.5062 5.47645 61.8724 5.65978 61.2386C5.69684 61.1091 5.769 60.9893 5.7963 60.8501C5.20536 61.5188 4.71778 62.2531 4.42134 63.0898C4.30822 63.4106 4.13269 63.5826 3.80894 63.6077C3.28041 63.6483 2.75188 63.6734 2.22334 63.7121C1.96005 63.7314 1.94445 63.5594 1.9386 63.372C1.92105 62.6241 2.22724 61.9864 2.62901 61.3835C2.76163 61.1845 2.9157 61.0009 3.03077 60.7922C2.04001 61.4724 1.34766 62.3342 1.34961 63.6154C1.23649 63.6232 1.14482 63.6251 1.05511 63.6367C0.711857 63.6773 0.649447 63.5034 0.713807 63.2154C0.908838 62.3284 1.24234 61.4975 1.75137 60.74C1.84498 60.5989 1.94055 60.4598 2.00881 60.3013C1.15068 61.0318 0.549982 61.942 0.0877595 63.0222L0.078008 63.0338Z" fill="#007FFF"></path><path d="M76.7835 52.7109C77.7352 52.2026 78.5719 51.6673 78.6889 50.5311C78.7845 49.6054 78.4978 48.7919 78.0297 48.073C78.0785 48.7107 78.1838 49.3832 78.1663 50.0518C78.137 51.2229 77.3315 52.1775 76.1887 52.4422C75.9663 52.4944 75.6738 52.4171 75.4631 52.3089C75.1979 52.1717 74.9834 51.9398 74.7474 51.706C75.3793 51.8529 75.9624 51.7408 76.4929 51.42C77.0214 51.0992 77.4095 50.6586 77.5227 49.9803C77.2945 50.2277 77.1092 50.4557 76.8947 50.6548C76.3076 51.2055 75.6075 51.3601 74.8683 51.0586C74.254 50.8093 73.6786 50.4615 73.0935 50.0905C74.0921 50.077 74.9853 49.8972 75.4709 48.9465C75.7693 48.3629 75.7674 47.7349 75.588 47.0353C75.5197 47.3175 75.4729 47.532 75.4183 47.7445C75.2174 48.5175 74.7045 49.045 74.0394 49.447C73.7625 49.6151 73.4777 49.6054 73.2047 49.4431C72.4987 49.0238 71.8804 48.504 71.4202 47.8218C71.0789 47.3175 71.114 46.7609 71.2661 46.2005C71.3753 45.7947 71.5099 45.3947 71.5957 44.985C71.701 44.4845 71.4631 44.1077 70.9716 43.9686C70.6888 43.8893 70.3923 43.8623 70.1096 43.7869C69.3743 43.5898 69.0583 43.1202 69.1734 42.3743C69.2261 42.0303 69.3431 41.6941 69.4094 41.3521C69.544 40.6525 69.2495 40.2796 68.524 40.3259C67.8316 40.3704 67.147 40.5115 66.4566 40.5945C65.3801 40.726 64.3054 40.867 63.225 40.9578C62.6184 41.0081 62.0041 40.9675 61.3663 40.9675C61.4502 40.8979 61.5477 40.8129 61.6511 40.7356C63.459 39.4177 65.146 37.9587 66.7745 36.4321C66.8701 36.3432 67.0749 36.2891 67.1977 36.3239C69.2943 36.9133 71.385 37.5278 73.4816 38.1152C74.0453 38.2737 74.3983 38.5771 74.6518 39.1143C76.0073 41.9917 77.3998 44.8497 78.7709 47.7194C79.2136 48.6431 79.4827 49.6054 79.2253 50.6374C78.96 51.6983 77.901 52.6123 76.7835 52.7109Z" fill="#007FFF"></path><path d="M23.3763 51.965C23.0292 52.5544 22.7054 53.1573 22.3271 53.7255C22.1379 54.0115 22.1301 54.2028 22.3622 54.4598C22.8575 55.0067 23.3256 55.5767 23.862 56.1004C23.7449 55.9284 23.6318 55.7564 23.5109 55.5883C23.2184 55.1786 22.9356 54.7612 22.6255 54.3632C22.4558 54.1467 22.4889 54.0037 22.645 53.7873C23.8386 52.1331 24.7981 50.363 25.2662 48.361C25.313 48.1601 25.3383 47.9552 25.3832 47.6982C26.3642 49.4084 26.3993 51.049 25.3149 52.7051C27.7333 49.8722 30.8967 48.0499 34.1011 46.1233C33.4204 47.3716 32.7085 48.4866 31.8407 49.5012C30.4325 51.1495 28.8333 52.5988 27.1209 53.9264C26.766 54.2008 26.6333 54.4752 26.7484 54.9023C26.9493 55.6444 27.0605 56.4173 27.3276 57.1343C27.903 58.6821 29.0108 59.7836 30.4813 60.5392C30.9513 60.7807 31.433 61.0049 31.8953 61.2619C32.5896 61.6465 33.0927 62.203 33.3131 62.976C33.3521 63.1151 33.358 63.262 33.2956 63.4378C33.0518 63.0591 32.847 62.6455 32.5545 62.3074C32.258 61.9672 31.8738 61.7006 31.5286 61.403C31.5013 61.4339 31.4759 61.4648 31.4486 61.4938C31.6222 61.6793 31.8036 61.8571 31.9674 62.0484C32.3068 62.4426 32.5135 62.889 32.5116 63.4185C32.5116 63.6562 32.4101 63.8089 32.1605 63.8031C31.63 63.7915 31.1015 63.7779 30.573 63.7316C30.4774 63.7238 30.376 63.5673 30.3136 63.4591C30.0464 62.9972 29.8104 62.518 29.5276 62.0658C29.4164 61.89 29.2116 61.7701 29.0166 61.6465C29.3969 62.2668 29.9235 62.8388 29.473 63.662C29.1999 62.9025 28.8703 62.1856 28.215 61.7431C28.3555 62.1721 28.5563 62.6204 28.6441 63.0881C28.7923 63.89 28.6109 64.0891 27.7938 63.9596C26.7601 63.7953 25.7401 63.5499 24.7162 63.3257C24.6343 63.3084 24.5192 63.1808 24.5153 63.0997C24.3749 60.1971 23.1072 57.7333 21.4884 55.4047C21.2095 55.0028 20.9306 54.5989 20.6654 54.2182C21.5586 53.4549 22.4382 52.7051 23.3178 51.9534C23.3373 51.9554 23.3568 51.9592 23.3763 51.9612V51.965Z" fill="#007FFF"></path><path d="M18.5689 10.9975C19.1442 11.6062 19.7683 12.1782 20.2871 12.8314C21.4475 14.2923 21.0496 16.2286 20.2734 17.2102C19.7975 17.8112 19.2183 18.333 18.6781 18.8818C18.5962 18.9649 18.4733 19.0113 18.368 19.075C18.329 19.0596 18.288 19.046 18.249 19.0306C18.2783 18.532 18.3075 18.0354 18.3348 17.5484C18.2529 17.6624 18.132 17.8054 18.0403 17.9639C17.9428 18.1339 17.8745 18.3195 17.7887 18.5069C17.5761 18.0876 17.541 17.3127 17.7595 16.6846C17.9526 16.1358 18.2295 15.616 18.4226 15.0672C18.6391 14.4546 18.8633 13.8343 18.9804 13.1985C19.1208 12.443 18.9492 11.7144 18.4343 11.0883C18.4791 11.0555 18.524 11.0246 18.5669 10.9917L18.5689 10.9975Z" fill="#007FFF"></path><path d="M19.3041 19.9234C21.5606 19.4634 22.526 17.8054 22.3563 15.5812C22.1983 16.4141 22.1437 17.2353 21.5801 17.8866C21.0164 18.5397 20.2441 18.8006 19.3704 19.0905C20.2968 18.1726 20.6927 17.0827 21.0164 15.987C21.348 14.8662 21.2388 13.7241 20.839 12.5627C21.976 13.6159 23.0935 14.6072 23.39 16.1841C23.7878 18.2963 22.4304 19.9562 20.2539 19.9775C19.9379 19.9813 19.62 19.9427 19.3041 19.9234Z" fill="#007FFF"></path><path d="M66.0782 3.63879C66.1016 4.98569 66.7862 6.06592 67.5195 7.11716C68.0831 7.92684 68.6448 8.73073 68.9276 9.68922C69.1558 10.4583 69.2357 11.2429 69.1382 12.0545C69.0856 11.8883 69.0349 11.7241 68.9822 11.5579C68.6097 10.4003 68.0226 9.35104 67.301 8.3771C66.6087 7.44374 66.0177 6.46207 65.9124 5.28329C65.8637 4.73641 65.9261 4.17987 65.9378 3.6272C65.9846 3.63106 66.0333 3.63493 66.0801 3.63879H66.0782Z" fill="#007FFF"></path><path d="M73.7605 22.3757C73.2788 23.2376 72.8361 24.0821 72.3407 24.8937C72.0677 25.3401 71.9 25.3323 71.4923 25.0135C71.465 24.9922 71.4319 24.9748 71.4104 24.9478C71.2251 24.712 70.8507 24.426 70.8955 24.2444C71.0048 23.798 71.1803 23.3265 71.7556 23.1545C72.4129 22.9574 73.0409 22.6598 73.7586 22.3777L73.7605 22.3757Z" fill="#007FFF"></path><path d="M65.7973 24.6173C65.6062 24.9594 65.4151 25.3014 65.1791 25.7265C65.8987 25.5275 66.2869 24.9922 66.872 24.625C66.6672 25.0173 66.4936 25.3516 66.2966 25.7304C66.634 25.827 66.9266 25.8985 67.2113 25.9951C67.4941 26.0898 67.7691 26.2077 68.046 26.3159C67.9583 26.6541 67.7866 26.7739 67.5078 26.7275C66.7764 26.6019 66.0431 26.486 65.3156 26.3391C64.7266 26.2193 64.6505 26.0492 64.9606 25.5545C65.181 25.2009 65.4463 24.8763 65.6901 24.5381L65.7954 24.6192L65.7973 24.6173Z" fill="#007FFF"></path><path d="M68.399 25.6357C68.8749 25.284 69.3508 24.9342 69.8247 24.5825C69.8442 24.6076 69.8637 24.6347 69.8832 24.6598C69.5302 25.1738 69.1207 25.6125 68.399 25.6357Z" fill="#007FFF"></path><path d="M111.928 21.3726V38.3354H107.832V24.7466H98.2114V32.1767C98.2114 36.5266 96.4113 38.3354 93.3513 38.3354H91.6252V34.9633C93.7218 34.9633 94.1158 34.1807 94.1158 31.713V21.3745H111.926L111.928 21.3726Z" fill="white"></path><path d="M118.885 34.9614H119.452L129.886 21.3726H136.769V38.3354H132.673V24.7466H132.106L121.82 38.3354H114.789V21.3726H118.885V34.9614Z" fill="white"></path><path d="M153.545 38.3355H146.021C141.434 38.3355 139.706 36.6485 139.706 32.5421V27.2144C139.706 22.5708 141.358 21.1775 146.021 21.1775H153.545C157.787 21.1775 159.738 22.449 159.738 27.2144V32.5421C159.738 36.7702 158.332 38.3355 153.545 38.3355ZM147.008 34.9615H152.436C155.051 34.9615 155.642 34.3991 155.642 32.1015V27.5796C155.642 25.11 154.803 24.5496 152.362 24.5496H147.082C144.518 24.5496 143.802 25.1853 143.802 27.6047V32.1266C143.802 34.3508 144.518 34.9615 147.008 34.9615Z" fill="white"></path><path d="M166.324 27.8732H176.906V21.3726H181.002V38.3354H176.906V31.2473H166.324V38.3354H162.228V21.3726H166.324V27.8732Z" fill="white"></path><path d="M94.8589 44.3163H92.3274V48.2584H91.6252V43.6206H94.8589V44.3163Z" fill="white"></path><path d="M100.033 45.9319C100.033 46.6411 99.8633 47.2111 99.522 47.6401C99.3309 47.8798 99.0949 48.0653 98.8121 48.1948C98.5293 48.3242 98.2251 48.388 97.9013 48.388C97.5951 48.388 97.3123 48.3358 97.0569 48.2295C96.7994 48.1233 96.579 47.9706 96.3938 47.7696V50.3204H95.6838V43.6226H96.3157V44.2062C96.501 43.9821 96.7351 43.8081 97.0179 43.6825C97.3006 43.5569 97.599 43.4932 97.9111 43.4932C98.2231 43.4932 98.5371 43.5569 98.816 43.6864C99.0949 43.8159 99.3309 43.9995 99.522 44.241C99.8633 44.67 100.033 45.2343 100.033 45.9338V45.9319ZM99.288 45.9319C99.288 45.3927 99.1749 44.9695 98.9506 44.6603C98.8238 44.4826 98.66 44.3512 98.4611 44.2661C98.2621 44.1811 98.0398 44.1367 97.798 44.1367C97.5561 44.1367 97.3553 44.1792 97.1661 44.2603C96.9749 44.3434 96.817 44.4652 96.6902 44.6256C96.4425 44.9348 96.3177 45.3695 96.3177 45.9319C96.3177 46.4942 96.4425 46.9367 96.6902 47.2459C96.817 47.4063 96.9808 47.53 97.1797 47.615C97.3787 47.7001 97.5912 47.7445 97.8175 47.7445C98.0437 47.7445 98.2563 47.6981 98.4591 47.6073C98.662 47.5165 98.8258 47.3812 98.9526 47.2034C99.1788 46.9116 99.29 46.4884 99.29 45.9319H99.288Z" fill="white"></path><path d="M104.905 43.6303L102.773 49.1358C102.594 49.6112 102.379 49.9339 102.131 50.1059C102.016 50.1909 101.89 50.2489 101.755 50.2779C101.619 50.3068 101.459 50.3204 101.273 50.3204L101.16 50.3126V49.6421L101.308 49.6595C101.523 49.6711 101.681 49.6363 101.784 49.5571C101.87 49.4991 101.954 49.3947 102.032 49.2401C102.11 49.0855 102.227 48.8015 102.383 48.3899L100.38 43.6245H101.108L102.711 47.4971L104.193 43.6322H104.903L104.905 43.6303Z" fill="white"></path><path d="M106.143 43.7405C106.455 43.5743 106.847 43.4912 107.321 43.4912C107.795 43.4912 108.199 43.5743 108.517 43.7405C108.741 43.8661 108.919 44.0265 109.045 44.2217C109.172 44.4168 109.238 44.6333 109.244 44.8748C109.244 45.0874 109.207 45.271 109.135 45.4294C109.063 45.586 108.948 45.7232 108.792 45.8372C109.162 46.0439 109.346 46.4014 109.346 46.9097C109.34 47.1667 109.27 47.4005 109.133 47.6092C108.997 47.8179 108.813 47.986 108.583 48.1116C108.242 48.2952 107.821 48.386 107.317 48.386C106.814 48.386 106.389 48.2952 106.061 48.1116C105.679 47.9165 105.437 47.5995 105.334 47.159L106.036 46.987C106.077 47.2092 106.204 47.3812 106.418 47.5029C106.645 47.6459 106.945 47.7174 107.319 47.7174C107.694 47.7174 107.992 47.6459 108.23 47.5029C108.495 47.3599 108.628 47.1512 108.628 46.8768C108.628 46.5328 108.472 46.3241 108.16 46.2507C107.986 46.1869 107.717 46.156 107.354 46.156H106.912V45.5724H107.354C107.528 45.5724 107.67 45.5686 107.784 45.5589C107.897 45.5492 108.002 45.5261 108.1 45.4855C108.256 45.4333 108.365 45.3618 108.429 45.2671C108.493 45.1724 108.525 45.0545 108.525 44.9115C108.525 44.7975 108.492 44.6912 108.425 44.5946C108.359 44.498 108.271 44.4168 108.16 44.355C107.945 44.2352 107.667 44.1695 107.319 44.1579C106.978 44.1695 106.701 44.2352 106.487 44.355C106.307 44.4516 106.198 44.5946 106.157 44.784L105.455 44.612C105.541 44.2275 105.771 43.9395 106.139 43.7444L106.143 43.7405Z" fill="white"></path><path d="M111.318 48.1948C111.023 48.0653 110.773 47.8778 110.572 47.6324C110.219 47.1918 110.044 46.6237 110.044 45.9319C110.044 45.2401 110.219 44.6835 110.572 44.2487C110.769 44.0091 111.017 43.8217 111.318 43.6903C111.618 43.5589 111.938 43.4932 112.279 43.4932C112.62 43.4932 112.938 43.5569 113.237 43.6864C113.535 43.8159 113.781 44.0033 113.978 44.2487C114.337 44.6777 114.514 45.2401 114.514 45.9319C114.514 46.6237 114.335 47.186 113.978 47.6324C113.781 47.8836 113.537 48.073 113.244 48.1986C112.952 48.3242 112.63 48.388 112.277 48.388C111.924 48.388 111.61 48.3242 111.316 48.1948H111.318ZM113.771 45.9319C113.771 45.3927 113.656 44.9734 113.424 44.67C113.297 44.5038 113.131 44.3763 112.93 44.2874C112.728 44.1985 112.511 44.1541 112.281 44.1541C112.051 44.1541 111.832 44.1985 111.631 44.2874C111.429 44.3763 111.267 44.5038 111.146 44.67C110.908 44.9734 110.791 45.3947 110.791 45.9319C110.791 46.4691 110.91 46.9 111.146 47.2034C111.267 47.3696 111.429 47.4991 111.631 47.5899C111.834 47.6807 112.051 47.7271 112.281 47.7271C112.511 47.7271 112.73 47.6807 112.93 47.5899C113.133 47.4991 113.297 47.3696 113.424 47.2034C113.654 46.9 113.771 46.4768 113.771 45.9319Z" fill="white"></path><path d="M117.74 43.6206C118.155 43.6206 118.489 43.7443 118.736 43.9897C119.019 44.2351 119.162 44.5482 119.162 44.9269C119.162 45.2129 119.078 45.4622 118.91 45.6748C118.852 45.7559 118.797 45.812 118.744 45.8468C118.906 45.9492 119.021 46.0555 119.091 46.1637C119.189 46.2661 119.265 46.3878 119.318 46.5289C119.37 46.67 119.396 46.811 119.396 46.954C119.396 47.1434 119.355 47.3251 119.275 47.499C119.193 47.6729 119.082 47.8217 118.937 47.9415C118.811 48.0497 118.668 48.1309 118.512 48.1811C118.356 48.2333 118.194 48.2584 118.027 48.2584H115.47V43.6303L117.74 43.6225V43.6206ZM116.18 45.6477H117.74C117.964 45.6477 118.144 45.5646 118.276 45.3984C118.385 45.267 118.44 45.1105 118.44 44.9269C118.428 44.7491 118.374 44.5945 118.276 44.4631C118.206 44.3781 118.13 44.3143 118.046 44.2738C117.962 44.2332 117.859 44.2139 117.738 44.2139H116.178V45.6477H116.18ZM116.18 47.6748H117.931C118.157 47.6748 118.341 47.6033 118.485 47.4603C118.612 47.3289 118.676 47.1492 118.676 46.9193C118.676 46.7473 118.612 46.5927 118.485 46.4555C118.399 46.3646 118.307 46.3047 118.212 46.2758C118.116 46.2468 117.993 46.2332 117.843 46.2332H116.18V47.6768V47.6748Z" fill="white"></path><path d="M121.364 48.1948C121.069 48.0653 120.819 47.8778 120.619 47.6324C120.265 47.1918 120.09 46.6237 120.09 45.9319C120.09 45.2401 120.265 44.6835 120.619 44.2487C120.815 44.0091 121.063 43.8217 121.364 43.6903C121.664 43.5589 121.984 43.4932 122.325 43.4932C122.666 43.4932 122.984 43.5569 123.283 43.6864C123.581 43.8159 123.827 44.0033 124.024 44.2487C124.383 44.6777 124.56 45.2401 124.56 45.9319C124.56 46.6237 124.381 47.186 124.024 47.6324C123.827 47.8836 123.583 48.073 123.29 48.1986C122.998 48.3242 122.676 48.388 122.323 48.388C121.97 48.388 121.656 48.3242 121.362 48.1948H121.364ZM123.815 45.9319C123.815 45.3927 123.7 44.9734 123.468 44.67C123.341 44.5038 123.175 44.3763 122.974 44.2874C122.772 44.1985 122.555 44.1541 122.325 44.1541C122.095 44.1541 121.876 44.1985 121.676 44.2874C121.473 44.3763 121.311 44.5038 121.19 44.67C120.952 44.9734 120.835 45.3947 120.835 45.9319C120.835 46.4691 120.954 46.9 121.19 47.2034C121.311 47.3696 121.473 47.4991 121.676 47.5899C121.878 47.6807 122.095 47.7271 122.325 47.7271C122.555 47.7271 122.774 47.6807 122.974 47.5899C123.177 47.4991 123.341 47.3696 123.468 47.2034C123.698 46.9 123.815 46.4768 123.815 45.9319Z" fill="white"></path><path d="M129.354 48.2585H128.644V44.7628L126.148 48.2585H125.516V43.6207H126.226V47.0817L128.722 43.6207H129.354V48.2585ZM128.652 41.9646C128.652 42.1714 128.601 42.3607 128.5 42.5347C128.398 42.7086 128.26 42.8477 128.084 42.9521C127.909 43.0545 127.716 43.1067 127.507 43.1067C127.298 43.1067 127.107 43.0545 126.93 42.9521C126.752 42.8497 126.614 42.7105 126.508 42.5347C126.405 42.3607 126.352 42.1694 126.352 41.9646H126.924C126.924 42.125 126.98 42.2603 127.093 42.3685C127.207 42.4767 127.343 42.5308 127.505 42.5308C127.667 42.5308 127.803 42.4767 127.913 42.3685C128.022 42.2603 128.076 42.125 128.076 41.9646H128.648H128.652Z" fill="white"></path><path d="M132.439 44.4884C132.492 44.3976 132.537 44.3281 132.578 44.2817C132.97 43.7599 133.543 43.501 134.294 43.501C134.739 43.501 135.127 43.586 135.456 43.7541C135.786 43.9222 136.032 44.1831 136.194 44.531C136.315 44.7764 136.375 45.0527 136.375 45.3561V48.2586H135.751V47.3388C135.669 47.4992 135.554 47.648 135.404 47.7852C135.254 47.9224 135.094 48.0306 134.928 48.1117C134.53 48.3069 134.128 48.3919 133.723 48.3688C133.487 48.3572 133.258 48.2953 133.038 48.1852C132.818 48.0731 132.646 47.9282 132.517 47.7523C132.426 47.6093 132.355 47.4721 132.309 47.3407C132.262 47.2093 132.238 47.0624 132.238 46.902C132.238 46.6624 132.299 46.4383 132.42 46.2315C132.541 46.0247 132.708 45.8566 132.923 45.7252C133.12 45.617 133.319 45.5397 133.522 45.4933C133.725 45.4469 134.013 45.3967 134.388 45.3387L134.674 45.2962L135.646 45.1667C135.599 44.8517 135.466 44.6121 135.248 44.4459C135.018 44.2566 134.696 44.1619 134.286 44.1619C134.06 44.1619 133.853 44.2005 133.662 44.2778C133.471 44.3551 133.319 44.4749 133.202 44.6334C133.173 44.6682 133.136 44.7184 133.089 44.788L132.439 44.4884ZM134.536 45.9397C134.2 45.9919 133.925 46.046 133.713 46.102C133.498 46.16 133.319 46.2489 133.171 46.3726C133.024 46.4962 132.95 46.6663 132.95 46.8827C132.95 47.0992 133.034 47.2827 133.202 47.4451C133.37 47.6074 133.574 47.7021 133.818 47.7233C133.847 47.7291 133.892 47.733 133.957 47.733C134.263 47.733 134.563 47.6499 134.858 47.4837C135.152 47.3175 135.363 47.0972 135.49 46.8228C135.57 46.6508 135.62 46.4904 135.642 46.3416C135.663 46.1928 135.673 45.9977 135.673 45.758L134.538 45.9378L134.536 45.9397Z" fill="white"></path><path d="M139.772 43.6206C140.188 43.6206 140.521 43.7443 140.769 43.9897C141.052 44.2351 141.194 44.5482 141.194 44.9269C141.194 45.2129 141.11 45.4622 140.943 45.6748C140.884 45.7559 140.829 45.812 140.777 45.8468C140.939 45.9492 141.054 46.0555 141.124 46.1637C141.221 46.2661 141.298 46.3878 141.35 46.5289C141.403 46.67 141.428 46.811 141.428 46.954C141.428 47.1434 141.387 47.3251 141.307 47.499C141.225 47.6729 141.114 47.8217 140.97 47.9415C140.843 48.0497 140.701 48.1309 140.545 48.1811C140.389 48.2333 140.227 48.2584 140.059 48.2584H137.502V43.6303L139.772 43.6225V43.6206ZM138.212 45.6477H139.772C139.997 45.6477 140.176 45.5646 140.309 45.3984C140.418 45.267 140.473 45.1105 140.473 44.9269C140.461 44.7491 140.406 44.5945 140.309 44.4631C140.239 44.3781 140.162 44.3143 140.079 44.2738C139.995 44.2332 139.891 44.2139 139.77 44.2139H138.21V45.6477H138.212ZM138.212 47.6748H139.964C140.19 47.6748 140.373 47.6033 140.517 47.4603C140.644 47.3289 140.709 47.1492 140.709 46.9193C140.709 46.7473 140.644 46.5927 140.517 46.4555C140.432 46.3646 140.34 46.3047 140.244 46.2758C140.149 46.2468 140.026 46.2332 139.876 46.2332H138.212V47.6768V47.6748Z" fill="white"></path><path d="M145.986 44.2564H144.34V48.2584H143.638V44.2564H141.992V43.6206H145.988V44.2564H145.986Z" fill="white"></path><path d="M147.693 48.1948C147.398 48.0653 147.148 47.8778 146.948 47.6324C146.595 47.1918 146.419 46.6237 146.419 45.9319C146.419 45.2401 146.595 44.6835 146.948 44.2487C147.145 44.0091 147.392 43.8217 147.693 43.6903C147.993 43.5589 148.313 43.4932 148.654 43.4932C148.995 43.4932 149.313 43.5569 149.612 43.6864C149.91 43.8159 150.156 44.0033 150.353 44.2487C150.712 44.6777 150.889 45.2401 150.889 45.9319C150.889 46.6237 150.71 47.186 150.353 47.6324C150.156 47.8836 149.912 48.073 149.62 48.1986C149.327 48.3242 149.005 48.388 148.652 48.388C148.299 48.388 147.985 48.3242 147.691 48.1948H147.693ZM150.146 45.9319C150.146 45.3927 150.031 44.9734 149.799 44.67C149.672 44.5038 149.506 44.3763 149.306 44.2874C149.103 44.1985 148.886 44.1541 148.656 44.1541C148.426 44.1541 148.207 44.1985 148.007 44.2874C147.804 44.3763 147.642 44.5038 147.521 44.67C147.283 44.9734 147.166 45.3947 147.166 45.9319C147.166 46.4691 147.285 46.9 147.521 47.2034C147.642 47.3696 147.804 47.4991 148.007 47.5899C148.209 47.6807 148.426 47.7271 148.656 47.7271C148.886 47.7271 149.105 47.6807 149.306 47.5899C149.508 47.4991 149.672 47.3696 149.799 47.2034C150.029 46.9 150.146 46.4768 150.146 45.9319Z" fill="white"></path><path d="M155.112 44.9347C155.088 44.8825 155.037 44.7975 154.956 44.6777C154.829 44.5057 154.665 44.3762 154.466 44.2873C154.267 44.1985 154.049 44.154 153.811 44.154C153.573 44.154 153.364 44.1985 153.165 44.2873C152.966 44.3762 152.806 44.5057 152.683 44.6777C152.457 44.9695 152.34 45.3908 152.329 45.9396C152.34 46.4884 152.459 46.9096 152.683 47.2014C152.804 47.3676 152.966 47.4952 153.169 47.5841C153.372 47.673 153.585 47.7174 153.811 47.7174C154.047 47.7174 154.265 47.673 154.466 47.5841C154.667 47.4952 154.829 47.3676 154.956 47.2014C155.014 47.1164 155.063 47.0333 155.104 46.9522L155.771 47.244C155.667 47.4159 155.584 47.5416 155.519 47.6208C155.316 47.872 155.069 48.0633 154.774 48.1928C154.48 48.3223 154.158 48.386 153.813 48.386C153.467 48.386 153.153 48.3223 152.855 48.1928C152.557 48.0633 152.311 47.8739 152.114 47.6208C151.773 47.1976 151.597 46.6352 151.585 45.9376C151.597 45.24 151.773 44.6758 152.114 44.2448C152.323 43.9878 152.57 43.7965 152.859 43.6748C153.148 43.553 153.466 43.4893 153.813 43.4893C154.16 43.4893 154.48 43.553 154.774 43.6825C155.069 43.812 155.316 43.9994 155.519 44.2448C155.628 44.3936 155.712 44.5289 155.771 44.6487L155.112 44.9328V44.9347Z" fill="white"></path><path d="M157.522 47.2015C157.643 47.3677 157.805 47.4971 158.008 47.588C158.211 47.6788 158.427 47.7252 158.657 47.7252C158.887 47.7252 159.104 47.6788 159.303 47.588C159.502 47.4971 159.666 47.3677 159.792 47.2015C159.845 47.1319 159.894 47.0507 159.941 46.9522L160.633 47.2536C160.551 47.4024 160.465 47.5319 160.374 47.6401C160.177 47.8797 159.933 48.0653 159.642 48.1947C159.35 48.3242 159.043 48.388 158.72 48.388C158.361 48.388 158.027 48.3242 157.719 48.1986C157.409 48.073 157.154 47.8836 156.953 47.6324C156.6 47.1918 156.424 46.6275 156.424 45.9396C156.436 45.242 156.611 44.6777 156.953 44.2468C157.156 44.0014 157.403 43.8139 157.698 43.6845C157.992 43.555 158.314 43.4912 158.659 43.4912C159.004 43.4912 159.326 43.555 159.617 43.6845C159.907 43.8139 160.155 44.0014 160.358 44.2468C160.711 44.6874 160.886 45.2517 160.886 45.9396C160.886 46.0246 160.884 46.0884 160.879 46.129H157.187C157.204 46.5754 157.317 46.9329 157.524 47.2015H157.522ZM158.008 44.2912C157.805 44.3821 157.643 44.5115 157.522 44.6777C157.349 44.9115 157.241 45.2014 157.202 45.5454H160.114C160.073 45.2014 159.968 44.9135 159.794 44.6777C159.667 44.5115 159.504 44.3821 159.305 44.2912C159.106 44.2004 158.889 44.154 158.659 44.154C158.429 44.154 158.211 44.2004 158.01 44.2912H158.008Z" fill="white"></path><path d="M166.189 45.9319C166.189 46.6411 166.02 47.2111 165.678 47.6401C165.487 47.8798 165.251 48.0653 164.968 48.1948C164.686 48.3242 164.381 48.388 164.058 48.388C163.751 48.388 163.469 48.3358 163.213 48.2295C162.956 48.1233 162.735 47.9706 162.55 47.7696V50.3204H161.84V43.6226H162.472V44.2062C162.657 43.9821 162.891 43.8081 163.174 43.6825C163.457 43.5569 163.755 43.4932 164.067 43.4932C164.379 43.4932 164.693 43.5569 164.972 43.6864C165.251 43.8159 165.487 43.9995 165.678 44.241C166.02 44.67 166.189 45.2343 166.189 45.9338V45.9319ZM165.444 45.9319C165.444 45.3927 165.331 44.9695 165.107 44.6603C164.98 44.4826 164.816 44.3512 164.617 44.2661C164.418 44.1811 164.196 44.1367 163.954 44.1367C163.712 44.1367 163.512 44.1792 163.322 44.2603C163.131 44.3434 162.973 44.4652 162.847 44.6256C162.599 44.9348 162.474 45.3695 162.474 45.9319C162.474 46.4942 162.599 46.9367 162.847 47.2459C162.973 47.4063 163.137 47.53 163.336 47.615C163.535 47.7001 163.748 47.7445 163.974 47.7445C164.2 47.7445 164.413 47.6981 164.615 47.6073C164.818 47.5165 164.982 47.3812 165.109 47.2034C165.335 46.9116 165.446 46.4884 165.446 45.9319H165.444Z" fill="white"></path><path d="M169.413 43.6206C169.829 43.6206 170.162 43.7443 170.41 43.9897C170.693 44.2351 170.835 44.5482 170.835 44.9269C170.835 45.2129 170.751 45.4622 170.583 45.6748C170.525 45.7559 170.47 45.812 170.418 45.8468C170.579 45.9492 170.695 46.0555 170.765 46.1637C170.862 46.2661 170.938 46.3878 170.991 46.5289C171.044 46.67 171.069 46.811 171.069 46.954C171.069 47.1434 171.028 47.3251 170.948 47.499C170.866 47.6729 170.755 47.8217 170.611 47.9415C170.484 48.0497 170.342 48.1309 170.185 48.1811C170.029 48.2333 169.868 48.2584 169.7 48.2584H167.143V43.6303L169.413 43.6225V43.6206ZM167.853 45.6477H169.413C169.637 45.6477 169.817 45.5646 169.949 45.3984C170.059 45.267 170.113 45.1105 170.113 44.9269C170.102 44.7491 170.047 44.5945 169.949 44.4631C169.879 44.3781 169.803 44.3143 169.719 44.2738C169.635 44.2332 169.532 44.2139 169.411 44.2139H167.851V45.6477H167.853ZM167.853 47.6748H169.604C169.831 47.6748 170.014 47.6033 170.158 47.4603C170.285 47.3289 170.349 47.1492 170.349 46.9193C170.349 46.7473 170.285 46.5927 170.158 46.4555C170.072 46.3646 169.981 46.3047 169.885 46.2758C169.79 46.2468 169.667 46.2332 169.517 46.2332H167.853V47.6768V47.6748Z" fill="white"></path><path d="M175.861 48.2584H175.151V44.7627L172.655 48.2584H172.023V43.6206H172.733V47.0816L175.229 43.6206H175.861V48.2584Z" fill="white"></path><path d="M180.343 44.9347C180.319 44.8825 180.269 44.7975 180.187 44.6777C180.06 44.5057 179.896 44.3762 179.697 44.2873C179.498 44.1985 179.28 44.154 179.042 44.154C178.804 44.154 178.595 44.1985 178.396 44.2873C178.197 44.3762 178.037 44.5057 177.915 44.6777C177.688 44.9695 177.571 45.3908 177.56 45.9396C177.571 46.4884 177.69 46.9096 177.915 47.2014C178.035 47.3676 178.197 47.4952 178.4 47.5841C178.603 47.673 178.816 47.7174 179.042 47.7174C179.278 47.7174 179.496 47.673 179.697 47.5841C179.898 47.4952 180.06 47.3676 180.187 47.2014C180.245 47.1164 180.294 47.0333 180.335 46.9522L181.002 47.244C180.899 47.4159 180.815 47.5416 180.75 47.6208C180.547 47.872 180.3 48.0633 180.005 48.1928C179.711 48.3223 179.389 48.386 179.044 48.386C178.699 48.386 178.385 48.3223 178.086 48.1928C177.788 48.0633 177.542 47.8739 177.345 47.6208C177.004 47.1976 176.828 46.6352 176.817 45.9376C176.828 45.24 177.004 44.6758 177.345 44.2448C177.554 43.9878 177.801 43.7965 178.09 43.6748C178.379 43.553 178.697 43.4893 179.044 43.4893C179.391 43.4893 179.711 43.553 180.005 43.6825C180.3 43.812 180.547 43.9994 180.75 44.2448C180.86 44.3936 180.943 44.5289 181.002 44.6487L180.343 44.9328V44.9347Z" fill="white"></path></g><defs><clipPath id="clip0_31_2"><rect width="181" height="64" fill="white"></rect></clipPath></defs></svg> 